<svg xmlns="http://www.w3.org/2000/svg" width="644" height="1080" viewBox="0 0 644 1080">
  <defs>
    <style>
      .cls-1 {
        fill: #f18836;
        stroke: #f18836;
        stroke-width: 1px;
        fill-rule: evenodd;
      }
    </style>
  </defs>
  <path id="Forma_1" data-name="Forma 1" class="cls-1" d="M143.088,13.2h415.8s58.447,9.874,61.275,47.6,4.377,320.22,4.377,320.22V593.054s11.761,122.384-52.522,238S379.437,1012.8,379.437,1012.8s-82.843,45.03-231.973,51.93-122.551,0-122.551,0V882.982c62.469,2.629,123.7-13.235,175.074-47.6,29.252-19.569,61.275-45.436,74.406-73.564s14.589-60.582,21.884-90.873H169.349l-96.291-4.327s-44.91-5.454-48.145-51.928,0-216.365,0-216.365V199.269L29.29,99.742S48.256,23.293,143.088,13.2Z"/>
</svg>
